<svg xmlns="http://www.w3.org/2000/svg" xmlns:xlink="http://www.w3.org/1999/xlink" version="1.1" width="800" height="800" viewBox="0 0 800 800" xml:space="preserve">
<desc>Created with Fabric.js 3.6.3</desc>
<defs>
</defs>
<g transform="matrix(1 0 0 1 445.2474122696423 518.0340300000001)" id="uidf80fro9vy">
<path style="stroke: rgb(0,0,0); stroke-width: 12; stroke-dasharray:; stroke-linecap: butt; stroke-dashoffset: 0; stroke-linejoin: miter; stroke-miterlimit: 4; fill: rgb(119,109,121); fill-rule: nonzero; opacity: 1;" transform=" translate(-448.02475499999997, -518.0340300000001)" d="M 600.37118 350.81487 l 66.41559 213.79291 l -43.07073 14.00209 c -7.64771 -21.22316 -27.54237 -36.26663 -51.01925 -36.26663 c -30.13829 0 -54.37327 24.7919 -54.37327 55.62273 c 0 4.95561 0.62607 9.75506 1.80217 14.32059 l -81.89518 26.62369 c -7.68982 -21.1386 -27.54348 -36.10667 -50.96119 -36.10667 c -30.13829 0 -54.37327 24.7919 -54.37327 55.62273 c 0 4.89575 0.61112 9.63936 1.75997 14.15542 l -38.97769 12.67146 l -66.41559 -213.79291 z" stroke-linecap="round"/>
</g>
<g transform="matrix(0.9831183978752133 -0.18297053248890632 0.18297053248890632 0.9831183978752133 373.29839872572177 331.19561302397335)" id="uid6qghcjm0g">
<path style="stroke: rgb(0,0,0); stroke-width: 30; stroke-dasharray:; stroke-linecap: round; stroke-dashoffset: 0; stroke-linejoin: round; stroke-miterlimit: 4; fill: rgb(255,255,255); fill-opacity: 0; fill-rule: nonzero; opacity: 1;" transform=" translate(-390.118835, -329.09891)" d="M 425.51665 401.86622 l -70.79563 -145.53462" stroke-linecap="round"/>
</g>
<g transform="matrix(1 0 0 1 318.05605726964234 192.49326999999997)" id="uidn44l2s129">
<path style="stroke: rgb(0,0,0); stroke-width: 12; stroke-dasharray:; stroke-linecap: butt; stroke-dashoffset: 0; stroke-linejoin: miter; stroke-miterlimit: 4; fill: rgb(231,236,20); fill-rule: nonzero; opacity: 1;" transform=" translate(-320.8334, -192.49326999999997)" d="M 320.8334 126.94983 c 35.51369 0 64.07112 29.21374 64.07112 65.54344 c 0 36.32992 -28.55734 65.54344 -64.07112 65.54344 c -35.51369 0 -64.07112 -29.21374 -64.07112 -65.54344 c 0 -36.32992 28.55734 -65.54344 64.07112 -65.54344 z" stroke-linecap="round"/>
</g>
<g transform="matrix(0.9368464447594255 -0.3497409597711208 0.3497409597711208 0.9368464447594255 225.3543902802624 282.7239909305378)" id="uid72r2hifia">
<path style="stroke: rgb(0,0,0); stroke-width: 28; stroke-dasharray:none; stroke-linecap: round; stroke-dashoffset: 0; stroke-linejoin: round; stroke-miterlimit: 4; fill: rgb(231,236,20); fill-rule: nonzero; opacity: 1;" transform=" translate(-291.29175999999995, -227.47348)" d="M 371.44674 245.15477 l -160.30996 -35.36258" stroke-linecap="round"/>
</g>
<g transform="matrix(0.9992411933474529 0.03894916581338229 -0.03894916581338229 0.9992411933474529 185.94889504709343 164.3719531821869)" id="uidm22mkgi0t">
<path style="stroke: rgb(0,0,0); stroke-width: 28; stroke-dasharray:none; stroke-linecap: round; stroke-dashoffset: 0; stroke-linejoin: round; stroke-miterlimit: 4; fill: rgb(255,255,255); fill-opacity: 0; fill-rule: nonzero; opacity: 1;" transform=" translate(-180.632635, -166.963215)" d="M 237.54518 185.25594 l -113.82509 -36.58545" stroke-linecap="round"/>
</g>
<g transform="matrix(1 0 0 1 574.8286772696423 601.1597399999999)" id="uida6binb7an">
<path style="stroke: rgb(0,0,0); stroke-width: 8; stroke-dasharray:; stroke-linecap: butt; stroke-dashoffset: 0; stroke-linejoin: miter; stroke-miterlimit: 4; fill: rgb(139,87,42); fill-rule: nonzero; opacity: 1;" transform=" translate(-577.60602, -601.1597399999999)" d="M 577.60602 570.28036 c 16.73147 0 30.18563 13.76345 30.18563 30.87938 c 0 17.11593 -13.45416 30.87938 -30.18563 30.87938 c -16.73147 0 -30.18563 -13.76345 -30.18563 -30.87938 c 0 -17.11593 13.45416 -30.87938 30.18563 -30.87938 z" stroke-linecap="round"/>
</g>
<g transform="matrix(1 0 0 1 385.7925872696423 657.1727)" id="uidtxphslwdw">
<path style="stroke: rgb(0,0,0); stroke-width: 8; stroke-dasharray:; stroke-linecap: butt; stroke-dashoffset: 0; stroke-linejoin: miter; stroke-miterlimit: 4; fill: rgb(139,87,42); fill-rule: nonzero; opacity: 1;" transform=" translate(-388.56993, -657.1727)" d="M 388.56993 626.29332 c 16.73147 0 30.18563 13.76345 30.18563 30.87938 c 0 17.11593 -13.45416 30.87938 -30.18563 30.87938 c -16.73147 0 -30.18563 -13.76345 -30.18563 -30.87938 c 0 -17.11593 13.45416 -30.87938 30.18563 -30.87938 z" stroke-linecap="round"/>
</g>
<g transform="matrix(1 0 0 1 138.85041826701965 527.2142857142857)" id="uid2s9fkm174">
<path style="stroke: rgb(0,0,0); stroke-opacity: 0.36; stroke-width: 4; stroke-dasharray:none; stroke-linecap: round; stroke-dashoffset: 0; stroke-linejoin: round; stroke-miterlimit: 10; fill: rgb(255,255,255); fill-opacity: 0; fill-rule: nonzero; opacity: 1;" transform=" translate(-138.85041826701965, -534.1587301587301)" d="M 198.7656685933052 531.7817777777776 Q 198.7616685933052 531.7777777777776 195.98432586294757 531.7777777777776 Q 193.20698313258995 531.7777777777776 191.22316689662023 530.9841269841268 Q 189.23935066065056 530.190476190476 185.2717181887111 527.8095238095236 Q 181.30408571677165 525.4285714285713 180.11379597518984 524.6349206349205 Q 178.92350623360804 523.8412698412696 177.33645324483226 523.0476190476189 Q 175.74940025605648 522.2539682539682 175.35263700886253 522.2539682539682 Q 174.95587376166858 522.2539682539682 174.1623472672807 522.2539682539682 Q 173.3688207728928 522.2539682539682 172.97205752569886 522.2539682539682 Q 172.5752942785049 522.2539682539682 171.38500453692308 522.2539682539682 Q 170.19471479534124 522.2539682539682 169.7979515481473 522.2539682539682 Q 169.40118830095335 522.2539682539682 168.21089855937151 522.2539682539682 Q 167.02060881778968 522.2539682539682 165.83031907620787 522.2539682539682 Q 164.64002933462606 522.2539682539682 164.24326608743212 523.0476190476189 Q 163.84650284023817 523.8412698412696 163.05297634585023 524.6349206349205 Q 162.25944985146234 525.4285714285713 161.06916010988053 526.6190476190475 Q 159.87887036829872 527.8095238095236 157.49829088513505 529.3968253968253 Q 155.11771140197138 530.9841269841269 153.13389516600165 532.5714285714284 Q 151.15007893003192 534.15873015873 150.75331568283798 534.5555555555554 Q 150.35655243564403 534.9523809523808 149.9597891884501 535.3492063492063 Q 149.56302594125614 535.7460317460316 147.97597295248036 536.142857142857 Q 146.38891996370458 536.5396825396824 144.00834048054094 537.7301587301586 Q 141.6277609973773 538.9206349206348 140.0407080086015 539.3174603174602 Q 138.45365501982573 539.7142857142856 137.2633652782439 539.7142857142856 Q 136.07307553666206 539.7142857142856 135.27954904227414 539.7142857142856 Q 134.48602254788625 539.7142857142856 132.50220631191655 539.7142857142856 Q 130.51839007594683 539.7142857142856 129.72486358155896 539.7142857142856 Q 128.93133708717107 539.7142857142856 128.13781059278318 539.7142857142856 Q 127.34428409839528 539.7142857142856 126.94752085120136 539.7142857142856 Q 126.5507576040074 539.7142857142856 126.15399435681348 539.7142857142856 Q 125.75723110961954 539.7142857142856 124.17017812084376 539.7142857142856 Q 122.58312513206798 539.7142857142856 120.99607214329218 538.5238095238094 Q 119.4090191545164 537.3333333333333 119.4090191545164 536.9365079365078 Q 119.4090191545164 536.5396825396824 119.01225590732244 536.5396825396824 Q 118.6154926601285 536.5396825396824 118.21872941293456 536.5396825396824 Q 117.82196616574063 536.5396825396824 117.02843967135276 536.142857142857 Q 116.23491317696488 535.7460317460316 114.25109694099515 535.7460317460316 Q 112.26728070502546 535.7460317460316 110.68022771624966 535.7460317460316 Q 109.09317472747388 535.7460317460316 107.50612173869808 535.7460317460316 Q 105.9190687499223 535.7460317460316 104.72877900834048 535.7460317460316 Q 103.53848926675865 535.7460317460316 103.14172601956469 535.7460317460316 Q 102.74496277237074 535.7460317460316 102.3481995251768 535.7460317460316 Q 101.95143627798288 535.7460317460316 101.55467303078892 535.7460317460316 Q 101.15790978359496 535.7460317460316 100.76114653640104 535.7460317460316 Q 100.3643832892071 535.7460317460316 99.17409354762528 536.5396825396824 Q 97.98380380604344 537.3333333333333 96.79351406446162 538.5238095238094 Q 95.60322432287978 539.7142857142856 95.20646107568582 539.7142857142856 Q 94.80969782849186 539.7142857142856 94.41293458129792 540.111111111111 Q 94.016171334104 540.5079365079364 93.61940808691004 540.5079365079364 Q 93.22264483971608 540.5079365079364 91.23882860374636 542.095238095238 Q 89.25501236777666 543.6825396825395 88.46148587338877 544.079365079365 Q 87.66795937900088 544.4761904761904 87.66795937900088 544.8730158730158 Q 87.66795937900088 545.2698412698412 86.08090639022511 545.6666666666665 Q 84.49385340144934 546.0634920634919 83.70032690706144 546.0634920634919 Q 82.90680041267353 546.0634920634919 82.5100371654796 546.0634920634919 Q 82.11327391828567 546.0634920634919 80.92298417670384 546.0634920634919 Q 79.732694435122 546.0634920634919 79.33593118792805 546.0634920634919 L 78.9351679407341 546.0634920634919" stroke-linecap="round"/>
</g>
<g transform="matrix(1 0 0 1 146.7086798175287 564.2380952380952)" id="uidskn9v25zx">
<path style="stroke: rgb(0,0,0); stroke-opacity: 0.36; stroke-width: 4; stroke-dasharray:none; stroke-linecap: round; stroke-dashoffset: 0; stroke-linejoin: round; stroke-miterlimit: 10; fill: rgb(255,255,255); fill-opacity: 0; fill-rule: nonzero; opacity: 1;" transform=" translate(-138.85041826701965, -534.1587301587301)" d="M 198.7656685933052 531.7817777777776 Q 198.7616685933052 531.7777777777776 195.98432586294757 531.7777777777776 Q 193.20698313258995 531.7777777777776 191.22316689662023 530.9841269841268 Q 189.23935066065056 530.190476190476 185.2717181887111 527.8095238095236 Q 181.30408571677165 525.4285714285713 180.11379597518984 524.6349206349205 Q 178.92350623360804 523.8412698412696 177.33645324483226 523.0476190476189 Q 175.74940025605648 522.2539682539682 175.35263700886253 522.2539682539682 Q 174.95587376166858 522.2539682539682 174.1623472672807 522.2539682539682 Q 173.3688207728928 522.2539682539682 172.97205752569886 522.2539682539682 Q 172.5752942785049 522.2539682539682 171.38500453692308 522.2539682539682 Q 170.19471479534124 522.2539682539682 169.7979515481473 522.2539682539682 Q 169.40118830095335 522.2539682539682 168.21089855937151 522.2539682539682 Q 167.02060881778968 522.2539682539682 165.83031907620787 522.2539682539682 Q 164.64002933462606 522.2539682539682 164.24326608743212 523.0476190476189 Q 163.84650284023817 523.8412698412696 163.05297634585023 524.6349206349205 Q 162.25944985146234 525.4285714285713 161.06916010988053 526.6190476190475 Q 159.87887036829872 527.8095238095236 157.49829088513505 529.3968253968253 Q 155.11771140197138 530.9841269841269 153.13389516600165 532.5714285714284 Q 151.15007893003192 534.15873015873 150.75331568283798 534.5555555555554 Q 150.35655243564403 534.9523809523808 149.9597891884501 535.3492063492063 Q 149.56302594125614 535.7460317460316 147.97597295248036 536.142857142857 Q 146.38891996370458 536.5396825396824 144.00834048054094 537.7301587301586 Q 141.6277609973773 538.9206349206348 140.0407080086015 539.3174603174602 Q 138.45365501982573 539.7142857142856 137.2633652782439 539.7142857142856 Q 136.07307553666206 539.7142857142856 135.27954904227414 539.7142857142856 Q 134.48602254788625 539.7142857142856 132.50220631191655 539.7142857142856 Q 130.51839007594683 539.7142857142856 129.72486358155896 539.7142857142856 Q 128.93133708717107 539.7142857142856 128.13781059278318 539.7142857142856 Q 127.34428409839528 539.7142857142856 126.94752085120136 539.7142857142856 Q 126.5507576040074 539.7142857142856 126.15399435681348 539.7142857142856 Q 125.75723110961954 539.7142857142856 124.17017812084376 539.7142857142856 Q 122.58312513206798 539.7142857142856 120.99607214329218 538.5238095238094 Q 119.4090191545164 537.3333333333333 119.4090191545164 536.9365079365078 Q 119.4090191545164 536.5396825396824 119.01225590732244 536.5396825396824 Q 118.6154926601285 536.5396825396824 118.21872941293456 536.5396825396824 Q 117.82196616574063 536.5396825396824 117.02843967135276 536.142857142857 Q 116.23491317696488 535.7460317460316 114.25109694099515 535.7460317460316 Q 112.26728070502546 535.7460317460316 110.68022771624966 535.7460317460316 Q 109.09317472747388 535.7460317460316 107.50612173869808 535.7460317460316 Q 105.9190687499223 535.7460317460316 104.72877900834048 535.7460317460316 Q 103.53848926675865 535.7460317460316 103.14172601956469 535.7460317460316 Q 102.74496277237074 535.7460317460316 102.3481995251768 535.7460317460316 Q 101.95143627798288 535.7460317460316 101.55467303078892 535.7460317460316 Q 101.15790978359496 535.7460317460316 100.76114653640104 535.7460317460316 Q 100.3643832892071 535.7460317460316 99.17409354762528 536.5396825396824 Q 97.98380380604344 537.3333333333333 96.79351406446162 538.5238095238094 Q 95.60322432287978 539.7142857142856 95.20646107568582 539.7142857142856 Q 94.80969782849186 539.7142857142856 94.41293458129792 540.111111111111 Q 94.016171334104 540.5079365079364 93.61940808691004 540.5079365079364 Q 93.22264483971608 540.5079365079364 91.23882860374636 542.095238095238 Q 89.25501236777666 543.6825396825395 88.46148587338877 544.079365079365 Q 87.66795937900088 544.4761904761904 87.66795937900088 544.8730158730158 Q 87.66795937900088 545.2698412698412 86.08090639022511 545.6666666666665 Q 84.49385340144934 546.0634920634919 83.70032690706144 546.0634920634919 Q 82.90680041267353 546.0634920634919 82.5100371654796 546.0634920634919 Q 82.11327391828567 546.0634920634919 80.92298417670384 546.0634920634919 Q 79.732694435122 546.0634920634919 79.33593118792805 546.0634920634919 L 78.9351679407341 546.0634920634919" stroke-linecap="round"/>
</g>
<g transform="matrix(1 0 0 1 152.902884985892 604.1587301587301)" id="uidceipapvyf">
<path style="stroke: rgb(0,0,0); stroke-opacity: 0.36; stroke-width: 4; stroke-dasharray:none; stroke-linecap: round; stroke-dashoffset: 0; stroke-linejoin: round; stroke-miterlimit: 10; fill: rgb(255,255,255); fill-opacity: 0; fill-rule: nonzero; opacity: 1;" transform=" translate(-138.85041826701965, -534.1587301587301)" d="M 198.7656685933052 531.7817777777776 Q 198.7616685933052 531.7777777777776 195.98432586294757 531.7777777777776 Q 193.20698313258995 531.7777777777776 191.22316689662023 530.9841269841268 Q 189.23935066065056 530.190476190476 185.2717181887111 527.8095238095236 Q 181.30408571677165 525.4285714285713 180.11379597518984 524.6349206349205 Q 178.92350623360804 523.8412698412696 177.33645324483226 523.0476190476189 Q 175.74940025605648 522.2539682539682 175.35263700886253 522.2539682539682 Q 174.95587376166858 522.2539682539682 174.1623472672807 522.2539682539682 Q 173.3688207728928 522.2539682539682 172.97205752569886 522.2539682539682 Q 172.5752942785049 522.2539682539682 171.38500453692308 522.2539682539682 Q 170.19471479534124 522.2539682539682 169.7979515481473 522.2539682539682 Q 169.40118830095335 522.2539682539682 168.21089855937151 522.2539682539682 Q 167.02060881778968 522.2539682539682 165.83031907620787 522.2539682539682 Q 164.64002933462606 522.2539682539682 164.24326608743212 523.0476190476189 Q 163.84650284023817 523.8412698412696 163.05297634585023 524.6349206349205 Q 162.25944985146234 525.4285714285713 161.06916010988053 526.6190476190475 Q 159.87887036829872 527.8095238095236 157.49829088513505 529.3968253968253 Q 155.11771140197138 530.9841269841269 153.13389516600165 532.5714285714284 Q 151.15007893003192 534.15873015873 150.75331568283798 534.5555555555554 Q 150.35655243564403 534.9523809523808 149.9597891884501 535.3492063492063 Q 149.56302594125614 535.7460317460316 147.97597295248036 536.142857142857 Q 146.38891996370458 536.5396825396824 144.00834048054094 537.7301587301586 Q 141.6277609973773 538.9206349206348 140.0407080086015 539.3174603174602 Q 138.45365501982573 539.7142857142856 137.2633652782439 539.7142857142856 Q 136.07307553666206 539.7142857142856 135.27954904227414 539.7142857142856 Q 134.48602254788625 539.7142857142856 132.50220631191655 539.7142857142856 Q 130.51839007594683 539.7142857142856 129.72486358155896 539.7142857142856 Q 128.93133708717107 539.7142857142856 128.13781059278318 539.7142857142856 Q 127.34428409839528 539.7142857142856 126.94752085120136 539.7142857142856 Q 126.5507576040074 539.7142857142856 126.15399435681348 539.7142857142856 Q 125.75723110961954 539.7142857142856 124.17017812084376 539.7142857142856 Q 122.58312513206798 539.7142857142856 120.99607214329218 538.5238095238094 Q 119.4090191545164 537.3333333333333 119.4090191545164 536.9365079365078 Q 119.4090191545164 536.5396825396824 119.01225590732244 536.5396825396824 Q 118.6154926601285 536.5396825396824 118.21872941293456 536.5396825396824 Q 117.82196616574063 536.5396825396824 117.02843967135276 536.142857142857 Q 116.23491317696488 535.7460317460316 114.25109694099515 535.7460317460316 Q 112.26728070502546 535.7460317460316 110.68022771624966 535.7460317460316 Q 109.09317472747388 535.7460317460316 107.50612173869808 535.7460317460316 Q 105.9190687499223 535.7460317460316 104.72877900834048 535.7460317460316 Q 103.53848926675865 535.7460317460316 103.14172601956469 535.7460317460316 Q 102.74496277237074 535.7460317460316 102.3481995251768 535.7460317460316 Q 101.95143627798288 535.7460317460316 101.55467303078892 535.7460317460316 Q 101.15790978359496 535.7460317460316 100.76114653640104 535.7460317460316 Q 100.3643832892071 535.7460317460316 99.17409354762528 536.5396825396824 Q 97.98380380604344 537.3333333333333 96.79351406446162 538.5238095238094 Q 95.60322432287978 539.7142857142856 95.20646107568582 539.7142857142856 Q 94.80969782849186 539.7142857142856 94.41293458129792 540.111111111111 Q 94.016171334104 540.5079365079364 93.61940808691004 540.5079365079364 Q 93.22264483971608 540.5079365079364 91.23882860374636 542.095238095238 Q 89.25501236777666 543.6825396825395 88.46148587338877 544.079365079365 Q 87.66795937900088 544.4761904761904 87.66795937900088 544.8730158730158 Q 87.66795937900088 545.2698412698412 86.08090639022511 545.6666666666665 Q 84.49385340144934 546.0634920634919 83.70032690706144 546.0634920634919 Q 82.90680041267353 546.0634920634919 82.5100371654796 546.0634920634919 Q 82.11327391828567 546.0634920634919 80.92298417670384 546.0634920634919 Q 79.732694435122 546.0634920634919 79.33593118792805 546.0634920634919 L 78.9351679407341 546.0634920634919" stroke-linecap="round"/>
</g>
<g transform="matrix(1 0 0 1 170.48184609265272 648.7222222222223)" id="uidfdme1k41e">
<path style="stroke: rgb(0,0,0); stroke-opacity: 0.36; stroke-width: 4; stroke-dasharray:none; stroke-linecap: round; stroke-dashoffset: 0; stroke-linejoin: round; stroke-miterlimit: 10; fill: rgb(255,255,255); fill-opacity: 0; fill-rule: nonzero; opacity: 1;" transform=" translate(-138.85041826701965, -534.1587301587301)" d="M 198.7656685933052 531.7817777777776 Q 198.7616685933052 531.7777777777776 195.98432586294757 531.7777777777776 Q 193.20698313258995 531.7777777777776 191.22316689662023 530.9841269841268 Q 189.23935066065056 530.190476190476 185.2717181887111 527.8095238095236 Q 181.30408571677165 525.4285714285713 180.11379597518984 524.6349206349205 Q 178.92350623360804 523.8412698412696 177.33645324483226 523.0476190476189 Q 175.74940025605648 522.2539682539682 175.35263700886253 522.2539682539682 Q 174.95587376166858 522.2539682539682 174.1623472672807 522.2539682539682 Q 173.3688207728928 522.2539682539682 172.97205752569886 522.2539682539682 Q 172.5752942785049 522.2539682539682 171.38500453692308 522.2539682539682 Q 170.19471479534124 522.2539682539682 169.7979515481473 522.2539682539682 Q 169.40118830095335 522.2539682539682 168.21089855937151 522.2539682539682 Q 167.02060881778968 522.2539682539682 165.83031907620787 522.2539682539682 Q 164.64002933462606 522.2539682539682 164.24326608743212 523.0476190476189 Q 163.84650284023817 523.8412698412696 163.05297634585023 524.6349206349205 Q 162.25944985146234 525.4285714285713 161.06916010988053 526.6190476190475 Q 159.87887036829872 527.8095238095236 157.49829088513505 529.3968253968253 Q 155.11771140197138 530.9841269841269 153.13389516600165 532.5714285714284 Q 151.15007893003192 534.15873015873 150.75331568283798 534.5555555555554 Q 150.35655243564403 534.9523809523808 149.9597891884501 535.3492063492063 Q 149.56302594125614 535.7460317460316 147.97597295248036 536.142857142857 Q 146.38891996370458 536.5396825396824 144.00834048054094 537.7301587301586 Q 141.6277609973773 538.9206349206348 140.0407080086015 539.3174603174602 Q 138.45365501982573 539.7142857142856 137.2633652782439 539.7142857142856 Q 136.07307553666206 539.7142857142856 135.27954904227414 539.7142857142856 Q 134.48602254788625 539.7142857142856 132.50220631191655 539.7142857142856 Q 130.51839007594683 539.7142857142856 129.72486358155896 539.7142857142856 Q 128.93133708717107 539.7142857142856 128.13781059278318 539.7142857142856 Q 127.34428409839528 539.7142857142856 126.94752085120136 539.7142857142856 Q 126.5507576040074 539.7142857142856 126.15399435681348 539.7142857142856 Q 125.75723110961954 539.7142857142856 124.17017812084376 539.7142857142856 Q 122.58312513206798 539.7142857142856 120.99607214329218 538.5238095238094 Q 119.4090191545164 537.3333333333333 119.4090191545164 536.9365079365078 Q 119.4090191545164 536.5396825396824 119.01225590732244 536.5396825396824 Q 118.6154926601285 536.5396825396824 118.21872941293456 536.5396825396824 Q 117.82196616574063 536.5396825396824 117.02843967135276 536.142857142857 Q 116.23491317696488 535.7460317460316 114.25109694099515 535.7460317460316 Q 112.26728070502546 535.7460317460316 110.68022771624966 535.7460317460316 Q 109.09317472747388 535.7460317460316 107.50612173869808 535.7460317460316 Q 105.9190687499223 535.7460317460316 104.72877900834048 535.7460317460316 Q 103.53848926675865 535.7460317460316 103.14172601956469 535.7460317460316 Q 102.74496277237074 535.7460317460316 102.3481995251768 535.7460317460316 Q 101.95143627798288 535.7460317460316 101.55467303078892 535.7460317460316 Q 101.15790978359496 535.7460317460316 100.76114653640104 535.7460317460316 Q 100.3643832892071 535.7460317460316 99.17409354762528 536.5396825396824 Q 97.98380380604344 537.3333333333333 96.79351406446162 538.5238095238094 Q 95.60322432287978 539.7142857142856 95.20646107568582 539.7142857142856 Q 94.80969782849186 539.7142857142856 94.41293458129792 540.111111111111 Q 94.016171334104 540.5079365079364 93.61940808691004 540.5079365079364 Q 93.22264483971608 540.5079365079364 91.23882860374636 542.095238095238 Q 89.25501236777666 543.6825396825395 88.46148587338877 544.079365079365 Q 87.66795937900088 544.4761904761904 87.66795937900088 544.8730158730158 Q 87.66795937900088 545.2698412698412 86.08090639022511 545.6666666666665 Q 84.49385340144934 546.0634920634919 83.70032690706144 546.0634920634919 Q 82.90680041267353 546.0634920634919 82.5100371654796 546.0634920634919 Q 82.11327391828567 546.0634920634919 80.92298417670384 546.0634920634919 Q 79.732694435122 546.0634920634919 79.33593118792805 546.0634920634919 L 78.9351679407341 546.0634920634919" stroke-linecap="round"/>
</g>
</svg>